<mxfile host="app.diagrams.net" modified="2024-01-11T18:55:04.036Z" agent="Mozilla/5.0 (Windows NT 10.0; Win64; x64) AppleWebKit/537.36 (KHTML, like Gecko) Chrome/119.0.0.0 Safari/537.36 OPR/105.0.0.0" etag="MHGcApfQZUKajwlPZduA" version="22.1.18" type="github">
  <diagram name="Страница — 1" id="u5UqKhQ3-igOrwf2P83G">
    <mxGraphModel dx="1393" dy="766" grid="1" gridSize="10" guides="1" tooltips="1" connect="1" arrows="1" fold="1" page="1" pageScale="1" pageWidth="827" pageHeight="1169" math="0" shadow="0">
      <root>
        <mxCell id="0" />
        <mxCell id="1" parent="0" />
        <mxCell id="s-sNvK8LplqXFnC56c5L-2" style="edgeStyle=orthogonalEdgeStyle;rounded=0;orthogonalLoop=1;jettySize=auto;html=1;" edge="1" parent="1" source="s-sNvK8LplqXFnC56c5L-1" target="s-sNvK8LplqXFnC56c5L-3">
          <mxGeometry relative="1" as="geometry">
            <mxPoint x="475" y="260" as="targetPoint" />
          </mxGeometry>
        </mxCell>
        <mxCell id="s-sNvK8LplqXFnC56c5L-1" value="Include: &lt;br&gt;iostream&lt;br&gt;vector&lt;br&gt;cmath&lt;br&gt;Windows.h" style="rounded=0;whiteSpace=wrap;html=1;" vertex="1" parent="1">
          <mxGeometry x="180" y="80" width="250" height="100" as="geometry" />
        </mxCell>
        <mxCell id="s-sNvK8LplqXFnC56c5L-5" style="edgeStyle=orthogonalEdgeStyle;rounded=0;orthogonalLoop=1;jettySize=auto;html=1;" edge="1" parent="1" source="s-sNvK8LplqXFnC56c5L-3" target="s-sNvK8LplqXFnC56c5L-6">
          <mxGeometry relative="1" as="geometry">
            <mxPoint x="690" y="295" as="targetPoint" />
          </mxGeometry>
        </mxCell>
        <mxCell id="s-sNvK8LplqXFnC56c5L-20" style="edgeStyle=orthogonalEdgeStyle;rounded=0;orthogonalLoop=1;jettySize=auto;html=1;" edge="1" parent="1" source="s-sNvK8LplqXFnC56c5L-3" target="s-sNvK8LplqXFnC56c5L-21">
          <mxGeometry relative="1" as="geometry">
            <mxPoint x="305" y="440" as="targetPoint" />
          </mxGeometry>
        </mxCell>
        <mxCell id="s-sNvK8LplqXFnC56c5L-3" value="Создаем класс:&lt;br&gt;Kalkulator&amp;nbsp;" style="rounded=0;whiteSpace=wrap;html=1;" vertex="1" parent="1">
          <mxGeometry x="180" y="230" width="250" height="130" as="geometry" />
        </mxCell>
        <mxCell id="s-sNvK8LplqXFnC56c5L-7" style="edgeStyle=orthogonalEdgeStyle;rounded=0;orthogonalLoop=1;jettySize=auto;html=1;" edge="1" parent="1" source="s-sNvK8LplqXFnC56c5L-6" target="s-sNvK8LplqXFnC56c5L-8">
          <mxGeometry relative="1" as="geometry">
            <mxPoint x="715" y="430" as="targetPoint" />
          </mxGeometry>
        </mxCell>
        <mxCell id="s-sNvK8LplqXFnC56c5L-9" style="edgeStyle=orthogonalEdgeStyle;rounded=0;orthogonalLoop=1;jettySize=auto;html=1;" edge="1" parent="1" source="s-sNvK8LplqXFnC56c5L-6" target="s-sNvK8LplqXFnC56c5L-10">
          <mxGeometry relative="1" as="geometry">
            <mxPoint x="800" y="430" as="targetPoint" />
          </mxGeometry>
        </mxCell>
        <mxCell id="s-sNvK8LplqXFnC56c5L-6" value="Он хранит&amp;nbsp;" style="rounded=0;whiteSpace=wrap;html=1;" vertex="1" parent="1">
          <mxGeometry x="630" y="230" width="170" height="130" as="geometry" />
        </mxCell>
        <mxCell id="s-sNvK8LplqXFnC56c5L-11" style="edgeStyle=orthogonalEdgeStyle;rounded=0;orthogonalLoop=1;jettySize=auto;html=1;" edge="1" parent="1" source="s-sNvK8LplqXFnC56c5L-8" target="s-sNvK8LplqXFnC56c5L-12">
          <mxGeometry relative="1" as="geometry">
            <mxPoint x="610" y="530" as="targetPoint" />
          </mxGeometry>
        </mxCell>
        <mxCell id="s-sNvK8LplqXFnC56c5L-8" value="private:" style="rounded=0;whiteSpace=wrap;html=1;" vertex="1" parent="1">
          <mxGeometry x="550" y="410" width="120" height="60" as="geometry" />
        </mxCell>
        <mxCell id="s-sNvK8LplqXFnC56c5L-16" style="edgeStyle=orthogonalEdgeStyle;rounded=0;orthogonalLoop=1;jettySize=auto;html=1;" edge="1" parent="1" source="s-sNvK8LplqXFnC56c5L-10" target="s-sNvK8LplqXFnC56c5L-17">
          <mxGeometry relative="1" as="geometry">
            <mxPoint x="810" y="510" as="targetPoint" />
          </mxGeometry>
        </mxCell>
        <mxCell id="s-sNvK8LplqXFnC56c5L-10" value="public:" style="rounded=0;whiteSpace=wrap;html=1;" vertex="1" parent="1">
          <mxGeometry x="750" y="410" width="120" height="60" as="geometry" />
        </mxCell>
        <mxCell id="s-sNvK8LplqXFnC56c5L-13" style="edgeStyle=orthogonalEdgeStyle;rounded=0;orthogonalLoop=1;jettySize=auto;html=1;" edge="1" parent="1" source="s-sNvK8LplqXFnC56c5L-12" target="s-sNvK8LplqXFnC56c5L-14">
          <mxGeometry relative="1" as="geometry">
            <mxPoint x="610" y="600" as="targetPoint" />
          </mxGeometry>
        </mxCell>
        <mxCell id="s-sNvK8LplqXFnC56c5L-12" value="створюемо vector" style="rounded=0;whiteSpace=wrap;html=1;" vertex="1" parent="1">
          <mxGeometry x="550" y="500" width="120" height="60" as="geometry" />
        </mxCell>
        <mxCell id="s-sNvK8LplqXFnC56c5L-14" value="возвращаем vector" style="rounded=0;whiteSpace=wrap;html=1;" vertex="1" parent="1">
          <mxGeometry x="550" y="585" width="120" height="60" as="geometry" />
        </mxCell>
        <mxCell id="s-sNvK8LplqXFnC56c5L-18" style="edgeStyle=orthogonalEdgeStyle;rounded=0;orthogonalLoop=1;jettySize=auto;html=1;" edge="1" parent="1" source="s-sNvK8LplqXFnC56c5L-17" target="s-sNvK8LplqXFnC56c5L-19">
          <mxGeometry relative="1" as="geometry">
            <mxPoint x="810" y="590" as="targetPoint" />
          </mxGeometry>
        </mxCell>
        <mxCell id="s-sNvK8LplqXFnC56c5L-17" value="Создаем функции" style="rounded=0;whiteSpace=wrap;html=1;" vertex="1" parent="1">
          <mxGeometry x="750" y="500" width="120" height="60" as="geometry" />
        </mxCell>
        <mxCell id="s-sNvK8LplqXFnC56c5L-19" value="Вводим занчение если ничего не написанно то программа заканичваеться и пишет неверно введено уравнение" style="rounded=0;whiteSpace=wrap;html=1;" vertex="1" parent="1">
          <mxGeometry x="690" y="600" width="410" height="95" as="geometry" />
        </mxCell>
        <mxCell id="s-sNvK8LplqXFnC56c5L-22" style="edgeStyle=orthogonalEdgeStyle;rounded=0;orthogonalLoop=1;jettySize=auto;html=1;" edge="1" parent="1" source="s-sNvK8LplqXFnC56c5L-21" target="s-sNvK8LplqXFnC56c5L-23">
          <mxGeometry relative="1" as="geometry">
            <mxPoint x="305" y="570" as="targetPoint" />
          </mxGeometry>
        </mxCell>
        <mxCell id="s-sNvK8LplqXFnC56c5L-21" value="создаем функцию которая будет определять знак выражения" style="rounded=0;whiteSpace=wrap;html=1;" vertex="1" parent="1">
          <mxGeometry x="180" y="410" width="250" height="90" as="geometry" />
        </mxCell>
        <mxCell id="s-sNvK8LplqXFnC56c5L-24" style="edgeStyle=orthogonalEdgeStyle;rounded=0;orthogonalLoop=1;jettySize=auto;html=1;" edge="1" parent="1" source="s-sNvK8LplqXFnC56c5L-23" target="s-sNvK8LplqXFnC56c5L-25">
          <mxGeometry relative="1" as="geometry">
            <mxPoint x="305" y="730" as="targetPoint" />
          </mxGeometry>
        </mxCell>
        <mxCell id="s-sNvK8LplqXFnC56c5L-23" value="А дальше int main" style="rounded=0;whiteSpace=wrap;html=1;" vertex="1" parent="1">
          <mxGeometry x="180" y="540" width="250" height="130" as="geometry" />
        </mxCell>
        <mxCell id="s-sNvK8LplqXFnC56c5L-25" value="Доделываем чтобы программа спрашивала и выводила&amp;nbsp;" style="rounded=0;whiteSpace=wrap;html=1;" vertex="1" parent="1">
          <mxGeometry x="180" y="730" width="250" height="140" as="geometry" />
        </mxCell>
      </root>
    </mxGraphModel>
  </diagram>
</mxfile>
